<?xml version="1.0" standalone="no"?>
<!DOCTYPE svg PUBLIC "-//W3C//DTD SVG 20010904//EN"
 "http://www.w3.org/TR/2001/REC-SVG-20010904/DTD/svg10.dtd">
<svg version="1.0" xmlns="http://www.w3.org/2000/svg"
 width="1014.000000pt" height="1014.000000pt" viewBox="0 0 1014.000000 1014.000000"
 preserveAspectRatio="xMidYMid meet">
<metadata>
Created by potrace 1.11, written by Peter Selinger 2001-2013
</metadata>
<g transform="translate(0.000000,1014.000000) scale(0.100000,-0.100000)"
fill="#000000" stroke="none">
<path d="M330 9887 l0 -143 168 -12 c399 -29 703 -95 887 -190 38 -20 98 -64
133 -96 52 -48 73 -78 112 -160 88 -182 124 -370 141 -746 15 -350 6 -7062
-10 -7190 -56 -450 -153 -655 -359 -763 -192 -101 -503 -169 -910 -200 l-157
-12 -3 -138 -3 -137 2603 0 c2591 0 2744 2 3078 35 1225 121 2114 562 2573
1277 228 353 347 753 378 1263 49 828 -211 1437 -802 1876 -456 339 -976 588
-1539 735 -58 15 -109 30 -113 34 -4 4 41 19 100 35 357 92 733 242 969 386
184 112 387 293 506 449 184 244 300 531 355 880 25 160 25 642 0 810 -74 490
-219 831 -487 1138 -267 307 -697 555 -1280 735 -426 132 -834 203 -1500 259
-94 7 -852 12 -2487 15 l-2353 4 0 -144z m4410 -451 c358 -34 610 -77 838
-141 701 -200 1147 -659 1295 -1335 43 -195 52 -289 51 -555 0 -268 -10 -356
-60 -545 -155 -593 -595 -992 -1282 -1164 -368 -92 -545 -104 -1794 -122
l-478 -6 0 1763 c0 1157 4 1786 10 1829 34 210 95 262 343 290 118 14 889 3
1077 -14z m-325 -4466 c546 -28 1015 -110 1429 -250 445 -150 710 -301 923
-523 249 -261 394 -598 455 -1057 19 -143 16 -585 -5 -740 -38 -276 -103 -515
-191 -695 -140 -286 -349 -499 -646 -657 -328 -174 -733 -299 -1165 -358 -387
-53 -1079 -55 -1405 -4 -302 47 -402 115 -471 319 l-24 70 -3 1955 -2 1955
447 -2 c247 -2 543 -8 658 -13z"/>
</g>
</svg>
